<?xml version="1.0" encoding="utf-8"?>
<!-- Generator: Adobe Illustrator 23.0.5, SVG Export Plug-In . SVG Version: 6.00 Build 0)  -->
<svg xmlns="http://www.w3.org/2000/svg" xmlns:xlink="http://www.w3.org/1999/xlink" version="1.1" id="Слой_1" x="0px"
     y="0px" viewBox="0 0 208.02 143.76" style="enable-background:new 0 0 208.02 143.76;" xml:space="preserve">
<style type="text/css">
	.st0{fill:#00c656;stroke:#000000;stroke-width:5;stroke-miterlimit:10;}
	.st1{fill:#00c656;stroke:#000000;stroke-width:6;stroke-miterlimit:10;}
	.st2{fill:none;stroke:#000000;stroke-width:5;stroke-miterlimit:10;}
	.st3{fill:none;stroke:#000000;stroke-width:5;stroke-linecap:round;stroke-linejoin:round;stroke-miterlimit:10;}
</style>
    <path class="st0"
          d="M107.04,53.99H89.69c-6.6,0-12-5.4-12-12V41.2c0-6.6,5.4-12,12-12h17.35c6.6,0,12,5.4,12,12v0.79  C119.04,48.59,113.64,53.99,107.04,53.99z"/>
    <path class="st1"
          d="M136.47,59.85l-0.07,48.07c0,17.05-18.66,32.84-35.71,32.84h-3c-17.05,0-35.24-14.41-35.24-31.46  c0,0,0-37.64,0-49.45"/>
    <path class="st0"
          d="M100.69,135.76h-3c-17.05,0-31-13.95-31-31V62.07c0-17.05,18.07-19.38,32.5-19.31  c17.05,0.08,32.5,2.26,32.5,19.31v42.69C131.69,121.81,117.74,135.76,100.69,135.76z"/>
	<line class="st2" x1="65.05" y1="62.07" x2="131.69" y2="62.07"/>
	<line class="st2" x1="99.19" y1="62.07" x2="99.19" y2="134.55"/>
	<path class="st3" d="M83.12,28.58c-2.71-3.71-3.89-8.42-3.68-13.02S81.17,6.5,83.43,2.5"/>
    <path class="st3"
          d="M110.1,29.43c-0.16,0.23,0.36,0.22,0.52-0.01c2.69-3.91,3.58-8.9,2.96-13.61s-2.68-9.15-5.39-13.04"/>
	<g>
	<g>
		<g>
			<path d="M0,128.87l6.98-6.25c5,7.11,11.84,10.55,18.56,10.55c12.24,0,17.77-5.76,17.77-19.01V68.9H7.24v-8.71h47.25v54.82     c0,14.96-7.24,27.23-28.69,27.23C16.19,142.23,6.05,138.06,0,128.87z"/>
		</g>
	</g>
</g>
<g>
	<g>
		<g>
			<path d="M144.45,60.31h11.19v40.22h0.4l36.19-40.22h12.63l-49.22,54.82v25.63h-11.19V60.31z M168.93,95.88l6.71-8.09l32.38,52.98     h-12.5L168.93,95.88z"/>
		</g>
	</g>
</g>
</svg>
